<svg width="112" height="51" viewBox="0 0 112 51" fill="none" xmlns="http://www.w3.org/2000/svg">
<path d="M30.5089 21.4523V30.015C30.5089 30.1538 30.4533 30.2869 30.3543 30.385C30.2553 30.4832 30.121 30.5383 29.9811 30.5383H27.2549C27.1149 30.5382 26.9807 30.4831 26.8818 30.3849C26.7828 30.2868 26.7272 30.1537 26.7271 30.015V16.0874C26.7271 15.9486 26.7827 15.8155 26.8817 15.7174C26.9807 15.6192 27.1149 15.5641 27.2549 15.5641H29.7777C29.9176 15.5641 30.0519 15.6192 30.1509 15.7174C30.2499 15.8155 30.3055 15.9486 30.3055 16.0874V18.0488C30.3055 18.0488 31.2073 15.2509 33.8836 15.2509C33.8836 15.2509 36.5309 14.9337 37.6072 17.8469C37.6072 17.8469 38.509 15.2509 41.2436 15.2509C41.2436 15.2509 45.3102 15.0112 45.3102 19.1834L45.3412 21.4812V30.0438C45.3412 30.1826 45.2855 30.3157 45.1866 30.4139C45.0876 30.512 44.9533 30.5671 44.8133 30.5671H42.087C41.947 30.5671 41.8128 30.5119 41.7138 30.4138C41.6148 30.3157 41.5592 30.1826 41.5591 30.0438L41.5342 20.7024C41.6117 18.5871 39.8858 18.741 39.8858 18.741C37.7138 18.7796 37.9228 21.4812 37.9228 21.4812V30.0438C37.9228 30.1826 37.8672 30.3157 37.7682 30.4139C37.6692 30.512 37.535 30.5671 37.395 30.5671H34.6688C34.5289 30.5671 34.3947 30.5119 34.2957 30.4138C34.1967 30.3157 34.1411 30.1826 34.141 30.0438V20.9138C34.141 20.9138 34.3004 18.7216 32.3609 18.7216C32.3611 18.7216 30.4412 18.4717 30.5089 21.4523ZM100.781 21.4267V29.9891C100.781 30.1279 100.726 30.261 100.627 30.3591C100.528 30.4572 100.394 30.5124 100.254 30.5124L97.4183 30.5669C97.2784 30.5668 97.1441 30.5117 97.0452 30.4136C96.9462 30.3154 96.8906 30.1823 96.8905 30.0436V20.9138C96.8905 20.9138 97.0499 18.7216 95.1106 18.7216C95.1106 18.7216 93.2584 18.6312 93.2584 22.0682V30.0147C93.2583 30.1535 93.2027 30.2866 93.1037 30.3847C93.0047 30.4828 92.8705 30.538 92.7305 30.5381H90.0042C89.8642 30.538 89.73 30.4828 89.631 30.3847C89.532 30.2866 89.4764 30.1535 89.4763 30.0147V16.0874C89.4764 15.9486 89.532 15.8156 89.631 15.7174C89.73 15.6193 89.8642 15.5641 90.0042 15.5641H92.5269C92.6669 15.5641 92.8011 15.6192 92.9001 15.7174C92.9991 15.8155 93.0547 15.9486 93.0547 16.0874V18.0488C93.0547 18.0488 93.9565 15.2509 96.6329 15.2509C96.6329 15.2509 99.4998 14.8197 100.465 17.7926C100.466 17.7924 100.781 18.4057 100.781 21.4267ZM81.0975 15.1933C77.6113 15.1933 74.7849 18.1065 74.7849 23.0099C74.7849 27.327 76.9667 30.8265 81.0975 30.8265C84.9957 30.8265 87.4102 27.327 87.4102 23.0099C87.4102 18.193 84.584 15.1933 81.0975 15.1933ZM83.298 23.1829C83.298 25.0289 83.0652 26.0096 83.0652 26.0096C82.7341 27.9611 81.3054 27.9638 81.0947 27.9534C80.8674 27.9624 79.4266 27.9421 79.1284 26.0096C79.1284 26.0096 78.8957 25.0289 78.8957 23.1829V22.8753C78.8957 21.0294 79.1284 20.0487 79.1284 20.0487C79.4266 18.1162 80.8676 18.0958 81.0947 18.1046C81.3054 18.0942 82.7341 18.0968 83.0652 20.0487C83.0652 20.0487 83.298 21.0294 83.298 22.8753V23.1829ZM73.2026 18.0294V16.0311C73.2025 15.8923 73.1469 15.7592 73.0479 15.6611C72.9489 15.563 72.8147 15.5078 72.6747 15.5078H63.6636C63.5236 15.5078 63.3894 15.5629 63.2904 15.661C63.1914 15.7592 63.1358 15.8923 63.1358 16.0311V18.0139C63.1359 18.1527 63.1915 18.2858 63.2905 18.3839C63.3894 18.4821 63.5237 18.5372 63.6636 18.5373H68.364L62.8004 26.5396C62.8004 26.5396 62.5812 26.8641 62.5884 27.2224V29.6566C62.5884 29.6566 62.5521 30.4912 63.5068 30.0069C63.5068 30.0069 65.2024 28.9911 68.0456 28.9911C68.0456 28.9911 70.8534 28.9565 72.7255 30.0943C72.7255 30.0943 73.5025 30.4446 73.5025 29.6744V27.5556C73.5025 27.5556 73.5731 26.9949 72.8314 26.6449C72.8314 26.6449 70.6768 25.4717 67.8513 25.6642L73.2026 18.0294ZM24.623 28.0476L23.7696 26.7595C23.498 26.2787 23.5176 25.7401 23.5176 25.7401V19.7985C23.6339 14.6644 17.8933 15.1067 17.8933 15.1067C12.7901 15.1067 12.0363 19.0445 12.0363 19.0445C11.8236 19.8362 12.4422 19.8553 12.4422 19.8553L14.9358 20.1061C14.9358 20.1061 15.361 20.2026 15.5158 19.7007C15.5158 19.7007 15.8442 17.9828 17.6806 17.9828C19.6788 17.9828 19.6581 19.6832 19.6581 19.6832V21.1067C15.6692 21.2389 13.8206 22.3368 13.8206 22.3368C11.3577 23.7213 11.5127 26.4711 11.5127 26.4711C11.5127 30.9513 15.8181 30.7589 15.8181 30.7589C18.5719 30.7589 20.201 28.7592 20.201 28.7592C20.6858 29.6056 21.578 30.4128 21.578 30.4128C22.0244 30.8927 22.4896 30.4898 22.4896 30.4898L24.5067 28.7786C24.9526 28.4514 24.623 28.0476 24.623 28.0476ZM17.1621 27.9922C15.8667 27.9922 15.3852 26.7159 15.6003 25.4616C15.8155 24.2072 16.9335 23.2215 19.6583 23.2503V24.0129C19.7549 27.3445 18.2403 27.9922 17.1621 27.9922ZM60.8504 28.0476L59.9973 26.7595C59.7257 26.2787 59.745 25.7401 59.745 25.7401V19.7985C59.8614 14.6644 54.1207 15.1067 54.1207 15.1067C49.0175 15.1067 48.2637 19.0445 48.2637 19.0445C48.051 19.8362 48.6696 19.8553 48.6696 19.8553L51.1632 20.1061C51.1632 20.1061 51.5884 20.2026 51.7432 19.7007C51.7432 19.7007 52.0716 17.9828 53.908 17.9828C55.9062 17.9828 55.8855 19.6832 55.8855 19.6832V21.1067C51.8968 21.2389 50.048 22.3368 50.048 22.3368C47.5851 23.7213 47.7401 26.4711 47.7401 26.4711C47.7401 30.9513 52.0455 30.7589 52.0455 30.7589C54.7993 30.7589 56.4284 28.7592 56.4284 28.7592C56.9134 29.6056 57.8052 30.4128 57.8052 30.4128C58.2516 30.8927 58.717 30.4898 58.717 30.4898L60.7338 28.7786C61.18 28.4514 60.8504 28.0476 60.8504 28.0476ZM53.3895 27.9922C52.0942 27.9922 51.6126 26.7159 51.8277 25.4616C52.0429 24.2072 53.161 23.2215 55.8855 23.2503V24.0129C55.9823 27.3445 54.4679 27.9922 53.3895 27.9922Z" fill="white"/>
<path d="M67.7148 39.2939C67.7148 39.2939 67.4868 39.6873 67.767 39.7752C67.767 39.7752 68.0835 39.8977 68.4782 39.5345C68.4782 39.5345 71.3568 37.0413 71.4261 32.502C71.4261 32.502 71.4473 31.9351 71.2178 31.78C71.2178 31.78 70.316 30.989 67.0732 31.2297C67.0732 31.2297 64.2465 31.4189 62.7033 32.7773C62.7033 32.7773 62.5646 32.8975 62.5646 33.0521C62.5646 33.0521 62.5314 33.386 63.3796 33.2413C63.3796 33.2413 66.2061 32.8456 67.8882 33.0521C67.8882 33.0521 68.7556 33.1553 68.9983 33.4478C68.9983 33.4478 69.3972 33.7746 69.1889 34.8575C69.1889 34.8579 68.6164 37.6089 67.7148 39.2939Z" fill="#F3971B"/>
<path d="M67.1445 34.9386C67.1445 34.9386 67.5666 35.4808 66.8855 35.9486C66.8855 35.9486 59.6088 41.7196 47.3907 41.7196C47.3907 41.7196 34.8138 42.3348 24.3121 32.8741C24.3121 32.8741 23.9439 32.5535 24.1724 32.2556C24.1724 32.2556 24.3768 31.9815 24.9058 32.2796C24.9058 32.2796 34.7847 38.3832 47.7591 38.3832C47.7591 38.3832 56.7773 38.7293 66.0281 34.8066C66.0281 34.8066 66.7651 34.4279 67.1445 34.9386Z" fill="#F3971B"/>
</svg>
