<svg width="145" height="52" viewBox="0 0 145 52" fill="none" xmlns="http://www.w3.org/2000/svg">
<g clip-path="url(#clip0_1_1264)">
<path d="M130.768 15.6362C130.754 15.5902 130.74 15.5441 130.722 15.498C119.811 15.5027 108.905 15.498 97.9982 15.5027C97.9706 15.5349 97.9522 15.5671 97.9476 15.6086C97.9476 24.0693 97.9476 32.5254 97.9429 40.9862C98.012 41.4375 98.2607 41.8475 98.5924 42.1561C98.6062 42.1607 98.6384 42.1652 98.6522 42.1699C98.8227 42.3494 99.0668 42.437 99.2971 42.5199C99.4675 42.5107 99.6333 42.5844 99.8037 42.566H113.345C113.474 42.5613 113.607 42.5844 113.731 42.5338C113.736 42.5154 113.741 42.4831 113.745 42.4647C113.75 42.4416 113.754 42.391 113.759 42.3634C114.049 40.7422 114.33 39.1163 114.639 37.4952L114.666 37.2879C113.414 37.2832 112.156 37.2879 110.904 37.2832C110.6 37.274 110.286 37.2832 109.982 37.2463C109.462 37.2233 108.937 37.2417 108.417 37.1911C107.772 37.1911 107.132 37.1312 106.487 37.1312C105.98 37.0805 105.469 37.099 104.958 37.076C104.626 37.0346 104.285 37.0529 103.949 37.0391C103.401 36.9792 102.844 37.0207 102.296 36.9608C101.715 36.9655 101.135 36.9148 100.555 36.9009C100.559 36.8963 100.564 36.8779 100.564 36.8733C100.757 36.8779 100.946 36.8641 101.14 36.8595C101.568 36.8042 102.001 36.8411 102.429 36.7811C102.876 36.7811 103.318 36.7213 103.765 36.7213C104.161 36.666 104.562 36.6983 104.958 36.643C105.423 36.643 105.879 36.5831 106.344 36.5785C106.726 36.5278 107.113 36.5555 107.495 36.5048C107.942 36.5094 108.384 36.4403 108.831 36.445C109.269 36.3942 109.715 36.408 110.153 36.3619C110.112 36.1916 110.079 36.0212 110.042 35.8507C110.01 35.7448 109.881 35.7678 109.798 35.754C108.799 35.6111 107.804 35.4685 106.809 35.3303C106.874 35.2795 106.961 35.3026 107.035 35.2934C107.809 35.2335 108.578 35.1644 109.352 35.1092C109.527 35.1 109.697 35.0677 109.872 35.0631C109.794 34.8237 109.748 34.5611 109.642 34.34C107.988 34.0867 106.335 33.861 104.686 33.5893C105.114 33.5202 105.547 33.488 105.976 33.4419L106.012 33.4281C107.38 33.2852 108.753 33.124 110.121 32.9905C111.857 32.9814 113.589 32.9858 115.325 32.9905C115.38 32.9814 115.477 33.0089 115.486 32.9306C115.629 32.1845 115.767 31.4384 115.91 30.6922C116.108 29.656 116.421 28.6335 116.905 27.6893C117.665 26.1694 118.867 24.8798 120.331 24.0232C121.699 23.2218 123.284 22.8349 124.859 22.7612C125.37 22.7152 125.886 22.729 126.393 22.7935C126.724 22.8717 127.065 22.9639 127.328 23.1895C127.544 23.3646 127.673 23.6225 127.77 23.8804C127.982 24.493 128.101 25.1286 128.203 25.7688C128.207 26.0267 128.253 26.3168 128.115 26.5517C127.986 26.782 127.728 26.8926 127.484 26.9616C126.595 27.1919 125.665 26.9754 124.776 27.1919C124.044 27.3485 123.362 27.7538 122.897 28.3388C122.349 29.0204 122.059 29.8677 121.898 30.7153C121.773 31.4707 121.617 32.226 121.492 32.9859C122.367 32.9906 123.247 32.9813 124.127 32.9906C124.477 32.9906 124.836 33.184 124.979 33.5156C125.163 33.9393 125.122 34.4184 125.062 34.8651C124.988 35.3671 124.868 35.8645 124.643 36.3251C124.454 36.7166 124.141 37.0759 123.712 37.214C123.491 37.3015 123.252 37.2831 123.017 37.2831C122.243 37.2831 121.469 37.2923 120.695 37.2831C120.571 37.8497 120.488 38.4299 120.378 39.0057C120.175 40.1248 119.977 41.2486 119.774 42.3725C119.77 42.4094 119.765 42.4876 119.765 42.5291C120.129 42.5475 120.493 42.5291 120.857 42.5382C123.556 42.5382 126.259 42.5335 128.963 42.5382C129.253 42.5475 129.548 42.4784 129.801 42.3356C129.953 42.2804 130.045 42.1467 130.179 42.0731C130.308 41.9994 130.344 41.8475 130.455 41.7507C130.575 41.5388 130.699 41.3178 130.708 41.069C130.722 41.069 130.759 41.0644 130.777 41.0598C130.763 32.5854 130.777 24.1108 130.768 15.6362Z" fill="url(#paint0_linear_1_1264)" stroke="#FCD109" stroke-width="0.0043294"/>
<path d="M102.237 10.0632C102.629 9.93882 103.039 10.0217 103.44 9.99409C110.961 9.99869 118.482 9.99409 126.003 9.99409C126.45 9.97566 126.841 10.229 127.256 10.3579C127.587 10.4915 127.933 10.5974 128.264 10.7402C128.334 10.7679 128.384 10.8277 128.435 10.8784C128.43 11.4863 128.435 12.0989 128.435 12.7115C128.439 12.8727 128.412 13.0385 128.467 13.1951C128.564 13.2089 128.614 13.2826 128.679 13.3425C128.983 13.4806 129.241 13.7063 129.517 13.8905C129.932 14.1853 130.374 14.4432 130.779 14.7472C130.797 14.867 130.784 14.9913 130.747 15.1019C130.706 15.2308 130.733 15.369 130.719 15.498C119.808 15.5026 108.902 15.4979 97.9954 15.5026C97.9724 15.3506 98.0139 15.1986 97.9494 15.0558C97.9402 14.936 97.8987 14.7795 98.0139 14.6966C98.4744 14.3741 98.9626 14.084 99.4139 13.7432C99.695 13.5635 99.9666 13.3793 100.238 13.1951C100.294 13.103 100.275 12.9878 100.275 12.8865C100.275 12.2187 100.275 11.5508 100.28 10.883C100.436 10.6803 100.708 10.6573 100.925 10.556C101.362 10.3902 101.804 10.229 102.237 10.0632ZM102.265 10.1415C101.676 10.3672 101.081 10.5836 100.492 10.8093C100.414 10.8231 100.372 10.8922 100.331 10.9521C100.335 10.9889 100.34 11.0534 100.34 11.0903C100.335 11.6429 100.34 12.1956 100.335 12.7483C100.34 12.8865 100.321 13.0247 100.372 13.149C100.312 13.2089 100.248 13.2688 100.174 13.3148C99.5061 13.7478 98.8613 14.2176 98.1935 14.6459C98.0783 14.715 97.9494 14.8071 97.9862 14.9591C97.9632 15.042 98.0047 15.1111 98.0922 15.088C99.5384 15.0788 100.98 15.0972 102.426 15.0742C104.577 15.0742 106.723 15.0788 108.874 15.0742L108.907 15.0604C109.003 15.0834 109.1 15.0742 109.201 15.0742C113.098 15.0742 116.994 15.0788 120.895 15.0742C122.12 15.0788 123.35 15.0742 124.58 15.0742C126.606 15.0742 128.637 15.0926 130.664 15.0834C130.724 15.0696 130.742 15.0282 130.719 14.9545C130.715 14.8808 130.742 14.7795 130.664 14.7334C130.342 14.5814 130.065 14.3465 129.757 14.1623C129.646 14.0702 129.503 14.0195 129.42 13.8952C129.103 13.7155 128.808 13.4945 128.495 13.2964C128.435 13.2596 128.389 13.1997 128.338 13.149C128.366 13.0523 128.375 12.9464 128.375 12.845C128.37 12.2601 128.375 11.6752 128.37 11.0903C128.384 10.9981 128.379 10.8922 128.297 10.8323C127.744 10.6343 127.196 10.4224 126.648 10.2198C126.477 10.1369 126.288 10.0908 126.104 10.0632H102.564C102.463 10.0678 102.366 10.1184 102.265 10.1415Z" fill="#F8F3B5" stroke="#F8F3B5" stroke-width="0.0043294"/>
<path d="M100.343 11.0903C100.748 11.2607 101.181 11.3575 101.591 11.5233C101.812 11.6108 101.881 11.8503 101.978 12.0437C101.881 12.1404 101.766 12.2187 101.651 12.2924C101.227 12.578 100.794 12.8543 100.375 13.1491C100.324 13.0247 100.343 12.8866 100.338 12.7484C100.343 12.1957 100.338 11.643 100.343 11.0903ZM127.125 11.5233C127.535 11.3621 127.963 11.2515 128.373 11.0903C128.378 11.6753 128.373 12.2602 128.378 12.8451C128.378 12.9464 128.369 13.0524 128.341 13.1491C127.982 12.9004 127.618 12.6655 127.259 12.4214C127.084 12.2924 126.89 12.1957 126.733 12.0391C126.83 11.8457 126.904 11.6108 127.125 11.5233Z" fill="#F7B402" stroke="#F7B402" stroke-width="0.0043294"/>
<path d="M107.371 11.7125C107.878 11.5927 108.444 12.0441 108.403 12.5737C108.407 13.0942 107.859 13.5179 107.357 13.3982C107.155 13.3291 106.961 13.2232 106.837 13.0435C106.676 12.7994 106.639 12.4724 106.768 12.2053C106.86 11.9474 107.109 11.7723 107.371 11.7125ZM120.511 12.0026C120.723 11.7677 121.059 11.6342 121.373 11.7171C121.608 11.7862 121.838 11.9381 121.939 12.1684C122.142 12.5645 121.985 13.0988 121.589 13.3061C121.239 13.4995 120.797 13.4074 120.53 13.1264C120.258 12.8178 120.24 12.3112 120.511 12.0026Z" fill="#BDA727" stroke="#BDA727" stroke-width="0.0043294"/>
<path d="M101.649 12.2924C101.765 12.2187 101.88 12.1404 101.977 12.0437L102.009 12.0759C102.041 12.3154 102.018 12.5595 102.027 12.799C102.013 13.5175 102.041 14.2406 102.009 14.9591C100.668 14.9591 99.3282 14.9499 97.9879 14.9591C97.951 14.8071 98.08 14.715 98.1951 14.6459C98.8629 14.2176 99.5078 13.7478 100.176 13.3149C100.249 13.2688 100.314 13.2089 100.374 13.149C100.793 12.8543 101.226 12.5779 101.649 12.2924ZM126.686 12.2003C126.686 12.1404 126.7 12.0897 126.732 12.0391C126.889 12.1957 127.082 12.2924 127.257 12.4213C127.617 12.6654 127.98 12.9003 128.34 13.149C128.39 13.1997 128.436 13.2596 128.496 13.2964C128.809 13.4945 129.104 13.7156 129.422 13.8952C129.505 14.0195 129.648 14.0702 129.758 14.1623C130.067 14.3465 130.343 14.5814 130.666 14.7334C130.744 14.7795 130.716 14.8808 130.721 14.9545C129.38 14.9591 128.045 14.9499 126.705 14.9591C126.682 14.7749 126.695 14.5906 126.691 14.411C126.691 13.6741 126.682 12.9372 126.686 12.2003Z" fill="#F7E62D" stroke="#F7E62D" stroke-width="0.0043294"/>
<path d="M130.721 14.9548C129.381 14.9594 128.045 14.9502 126.705 14.9594C126.682 14.7752 126.695 14.5909 126.691 14.4113C126.691 13.6744 126.682 12.9375 126.686 12.2005C126.686 12.1407 126.7 12.09 126.732 12.0393C126.829 11.8459 126.903 11.611 127.124 11.5235C127.534 11.3623 127.962 11.2518 128.372 11.0906C128.386 10.9984 128.381 10.8925 128.298 10.8326C127.746 10.6346 127.198 10.4227 126.649 10.2201C126.479 10.1372 126.29 10.0911 126.106 10.0635H102.566C102.465 10.0681 102.368 10.1187 102.267 10.1418C101.677 10.3675 101.083 10.5839 100.493 10.8096C100.415 10.8234 100.373 10.8925 100.332 10.9524C100.337 10.9892 100.341 11.0537 100.341 11.0906C100.747 11.261 101.18 11.3577 101.59 11.5235C101.811 11.611 101.88 11.8505 101.976 12.0439L102.009 12.0762C102.041 12.3157 102.018 12.5598 102.027 12.7993C102.013 13.5178 102.041 14.2409 102.009 14.9594C100.668 14.9594 99.3281 14.9502 97.9877 14.9594C97.9647 15.0423 98.0061 15.1114 98.0937 15.0883C99.5399 15.0791 100.981 15.0976 102.428 15.0745C104.579 15.0745 106.725 15.0791 108.876 15.0745L108.908 15.0607C109.005 15.0837 109.101 15.0745 109.203 15.0745C113.099 15.0745 116.996 15.0791 120.897 15.0745C122.122 15.0791 123.352 15.0745 124.581 15.0745C126.608 15.0745 128.639 15.0929 130.665 15.0837C130.726 15.0699 130.744 15.0285 130.721 14.9548ZM106.766 12.2051C106.859 11.9472 107.107 11.7722 107.37 11.7123C107.876 11.5926 108.443 12.0439 108.401 12.5736C108.406 13.0941 107.858 13.5178 107.356 13.398C107.153 13.3289 106.96 13.223 106.836 13.0434C106.674 12.7993 106.637 12.4723 106.766 12.2051ZM120.51 12.0025C120.722 11.7676 121.058 11.634 121.371 11.7169C121.606 11.786 121.836 11.938 121.938 12.1683C122.14 12.5644 121.984 13.0987 121.588 13.3059C121.238 13.4994 120.796 13.4072 120.528 13.1263C120.257 12.8177 120.238 12.3111 120.51 12.0025Z" fill="url(#paint1_radial_1_1264)" stroke="#FCD109" stroke-width="0.0043294"/>
<path d="M121.685 16.9788C121.749 16.9926 121.349 16.5944 121.427 16.576C121.501 16.5852 121.78 16.3683 122.118 16.5453C122.456 16.7222 122.372 17.1363 122.334 17.2899C122.288 17.4727 122.172 17.5893 122.08 17.6814C122.029 17.7228 121.915 17.7873 121.846 17.7827C121.888 17.557 121.754 17.5202 121.745 17.2899L121.685 16.9788Z" fill="url(#paint2_linear_1_1264)" stroke="#FCD109" stroke-width="0.0043294"/>
<path d="M106.962 17.2284C106.953 17.4587 106.819 17.4955 106.861 17.7212C106.792 17.7258 106.678 17.6613 106.627 17.6199C106.535 17.5278 106.419 17.4112 106.373 17.2284C106.335 17.0749 106.251 16.6608 106.589 16.4838C106.927 16.3068 107.206 16.5237 107.28 16.5145C107.358 16.5329 106.958 16.9312 107.022 16.9173L106.962 17.2284Z" fill="url(#paint3_linear_1_1264)" stroke="#FCD109" stroke-width="0.0043294"/>
<path d="M121.079 19.9293C121.148 19.8691 121.194 19.8691 121.286 19.8691C120.733 21.0666 120.089 22.2641 119.119 23.1965C119.015 23.289 118.906 23.3748 118.791 23.4534C118.68 23.5346 118.571 23.6108 118.463 23.6884C118.357 23.7619 118.252 23.8359 118.149 23.913C117.887 24.0558 117.657 24.2539 117.366 24.3414C116.837 24.5947 116.266 24.7651 115.69 24.8848C115.464 24.9217 115.234 24.977 115.004 24.9816C114.718 25.0645 114.414 25.0046 114.124 25.023C113.963 25.0506 113.82 24.9585 113.664 24.977C113.528 24.9577 113.392 24.9347 113.257 24.9078C113.121 24.8799 112.985 24.8476 112.85 24.8111C110.739 24.1525 108.666 22.5405 108.062 20.3603C108.035 20.2135 108.022 20.0645 108.021 19.9152C108.086 20.0442 108.153 20.1722 108.222 20.299C109.081 22.172 110.785 23.6458 112.798 24.0903C112.962 24.1648 113.138 24.1387 113.295 24.2031C113.438 24.2031 113.576 24.1985 113.714 24.2446C114.189 24.2538 114.663 24.2492 115.137 24.2492C115.202 24.2538 115.262 24.2216 115.326 24.2078C116.117 24.1809 116.892 23.9653 117.613 23.6383C117.757 23.5729 117.899 23.503 118.039 23.4293C118.161 23.365 118.281 23.2952 118.397 23.2203C118.511 23.1468 118.622 23.0685 118.729 22.9856C119.582 22.3102 120.319 21.4351 120.819 20.4288C120.914 20.2477 121.002 20.08 121.079 19.9293Z" fill="#BDA727" stroke="#BDA727" stroke-width="0.0043294"/>
<path d="M120.333 24.0235C121.701 23.2221 123.285 22.8352 124.861 22.7615C125.372 22.7154 125.888 22.7293 126.394 22.7937C126.726 22.872 127.067 22.9641 127.329 23.1898C127.196 23.199 127.067 23.1392 126.933 23.1207C126.556 23.0471 126.164 23.0747 125.782 23.0655C124.672 23.0655 123.553 23.153 122.479 23.457C121.918 23.6274 121.356 23.8254 120.844 24.1202C119.96 24.6084 119.163 25.2532 118.518 26.027C117.367 27.3489 116.69 29.0253 116.363 30.7341C116.206 31.6505 116.027 32.5624 115.884 33.4836C115.654 33.5066 115.419 33.4928 115.189 33.4928C114.175 33.4882 113.162 33.4836 112.149 33.4745C111.932 33.4836 111.72 33.433 111.504 33.4468C109.662 33.4559 107.819 33.4422 105.977 33.4422L106.014 33.4283C107.382 33.2854 108.754 33.1242 110.122 32.9908C111.858 32.9816 113.59 32.9861 115.327 32.9908C115.382 32.9816 115.479 33.0091 115.488 32.9308C115.631 32.1848 115.769 31.4387 115.912 30.6924C116.11 29.6563 116.423 28.6338 116.906 27.6896C117.666 26.1697 118.869 24.8801 120.333 24.0235Z" fill="#0D69B3" stroke="#0D69B3" stroke-width="0.0043294"/>
<path d="M122.479 23.4569C123.552 23.1529 124.671 23.0654 125.781 23.0654C126.163 23.0746 126.555 23.047 126.932 23.1207C127.066 23.1391 127.195 23.199 127.329 23.1898C127.545 23.3648 127.674 23.6227 127.771 23.8806C127.983 24.4932 128.102 25.1288 128.204 25.769C128.208 26.0269 128.254 26.3171 128.116 26.552C127.987 26.7823 127.729 26.8928 127.485 26.9619C126.596 27.1922 125.666 26.9757 124.777 27.1922C124.045 27.3488 123.363 27.754 122.898 28.339C122.35 29.0206 122.06 29.868 121.898 30.7156C121.774 31.4709 121.617 32.2262 121.493 32.9862C121.438 33.1566 121.406 33.3408 121.373 33.5205C122.244 33.5344 123.114 33.5205 123.985 33.5297C124.316 33.5205 124.648 33.5388 124.98 33.5158C125.164 33.9396 125.122 34.4186 125.063 34.8653C124.989 35.3674 124.869 35.8647 124.643 36.3253C124.454 36.7168 124.141 37.0761 123.713 37.2143C123.492 37.3018 123.252 37.2834 123.018 37.2834C122.244 37.2834 121.47 37.2925 120.696 37.2834C120.572 37.8499 120.489 38.4302 120.379 39.0059C120.176 40.1251 119.978 41.2489 119.775 42.3727C119.771 42.4096 119.766 42.4878 119.766 42.5293V42.5339C117.753 42.5339 115.745 42.5386 113.732 42.5339C113.737 42.5156 113.742 42.4832 113.746 42.4648C113.751 42.4418 113.755 42.3911 113.76 42.3635C113.765 42.4004 113.769 42.4695 113.774 42.5017C113.898 42.5156 114.124 42.58 114.156 42.4004C114.469 40.7055 114.76 39.0013 115.082 37.3064C114.958 37.2788 114.829 37.2788 114.7 37.3018C114.681 37.3663 114.663 37.4307 114.64 37.4952L114.667 37.2879C113.415 37.2832 112.157 37.2879 110.905 37.2832C110.601 37.2741 110.288 37.2832 109.984 37.2464C109.463 37.2234 108.938 37.2418 108.418 37.1911C107.773 37.1911 107.133 37.1313 106.488 37.1313C105.981 37.0806 105.47 37.099 104.959 37.076C104.627 37.0346 104.286 37.0529 103.95 37.0392C103.402 36.9792 102.845 37.0208 102.297 36.9608C101.716 36.9655 101.136 36.9148 100.556 36.901C100.56 36.8964 100.565 36.878 100.565 36.8734C100.758 36.878 100.947 36.8641 101.141 36.8595C101.569 36.8043 102.002 36.8411 102.43 36.7812C102.877 36.7812 103.319 36.7213 103.766 36.7213C104.162 36.6661 104.563 36.6983 104.959 36.6431C105.424 36.6431 105.88 36.5831 106.345 36.5786C106.727 36.5279 107.114 36.5556 107.497 36.5049C107.943 36.5095 108.385 36.4404 108.832 36.445C109.27 36.3942 109.716 36.4081 110.154 36.362C110.113 36.1917 110.08 36.0213 110.043 35.8508C110.011 35.7448 109.882 35.7678 109.799 35.7541C108.8 35.6112 107.805 35.4685 106.81 35.3303C106.875 35.2795 106.962 35.3026 107.036 35.2935C107.81 35.2335 108.579 35.1644 109.353 35.1093C109.528 35.1 109.698 35.0678 109.873 35.0632C109.795 34.8237 109.749 34.5612 109.643 34.3401C107.989 34.0867 106.336 33.8611 104.687 33.5894C105.115 33.5203 105.548 33.488 105.977 33.4419C107.819 33.4419 109.661 33.4558 111.504 33.4465C111.72 33.4328 111.932 33.4834 112.148 33.4743C113.162 33.4834 114.175 33.4881 115.188 33.4926C115.418 33.4926 115.653 33.5065 115.884 33.4834C116.026 32.5623 116.206 31.6503 116.363 30.7339C116.69 29.025 117.367 27.3486 118.518 26.0268C119.163 25.253 119.96 24.6082 120.844 24.12C121.355 23.8254 121.917 23.6273 122.479 23.4569Z" fill="#107BD4" stroke="#107BD4" stroke-width="0.0043294"/>
<path d="M121.492 32.9863C122.367 32.991 123.247 32.9817 124.126 32.991C124.476 32.991 124.836 33.1844 124.978 33.516C124.647 33.539 124.315 33.5207 123.984 33.5299C123.113 33.5207 122.242 33.5345 121.372 33.5207C121.404 33.341 121.436 33.1568 121.492 32.9863ZM114.698 37.302C114.827 37.2789 114.956 37.2789 115.081 37.3066C114.758 39.0015 114.468 40.7056 114.155 42.4006C114.123 42.5801 113.897 42.5157 113.773 42.5019C113.768 42.4697 113.763 42.4006 113.759 42.3637C114.049 40.7425 114.33 39.1167 114.638 37.4955C114.662 37.4309 114.68 37.3665 114.698 37.302Z" fill="#0D69B3" stroke="#0D69B3" stroke-width="0.0043294"/>
<path d="M121.893 17.1077C121.856 17.0386 121.852 16.9557 121.852 16.8774L121.815 16.882C121.76 16.6794 121.589 16.4859 121.368 16.4767C121.202 16.4629 120.995 16.4675 120.899 16.6241C120.714 16.8728 120.802 17.1906 120.793 17.4716C120.793 17.49 120.797 17.5222 120.797 17.5406C120.797 17.7295 120.774 17.9137 120.742 18.0979C120.714 18.1532 120.701 18.2131 120.701 18.2776C120.622 18.7105 120.466 19.1388 120.254 19.5303C120.212 19.5856 120.18 19.6455 120.166 19.7099C120.028 19.9494 119.862 20.1705 119.692 20.3916C119.664 20.4146 119.641 20.4423 119.618 20.4699C119.498 20.6173 119.369 20.7416 119.236 20.8706C119.204 20.889 119.181 20.912 119.153 20.9305C118.996 21.0825 118.821 21.2252 118.632 21.3404C118.609 21.3542 118.586 21.3726 118.559 21.391C117.38 22.1694 115.947 22.4918 114.552 22.5056C113.368 22.5425 112.175 22.2892 111.107 21.7779C111.088 21.7687 111.042 21.7503 111.024 21.7411C110.844 21.6444 110.66 21.5615 110.494 21.4417C110.457 21.4233 110.42 21.4003 110.379 21.3818C110.208 21.2805 110.047 21.17 109.895 21.041C109.845 20.9949 109.789 20.9581 109.734 20.9166C109.568 20.7831 109.398 20.6403 109.255 20.4791C109.218 20.4376 109.181 20.4008 109.145 20.364C108.643 19.8435 108.251 19.2079 108.044 18.5171C107.846 17.969 107.874 17.3702 107.851 16.7945C107.685 16.5412 107.335 16.3984 107.058 16.555C106.943 16.6379 106.929 16.7899 106.842 16.8958C106.699 18.4157 107.349 19.931 108.385 21.0272C108.385 21.064 108.403 21.0871 108.436 21.1009C108.62 21.2713 108.799 21.4463 108.984 21.6121C109.016 21.6444 109.053 21.6766 109.094 21.7042C109.278 21.8562 109.476 21.9944 109.67 22.1372C109.707 22.1648 109.743 22.1878 109.785 22.2109C110.038 22.3582 110.278 22.5333 110.549 22.6346C110.568 22.6484 110.6 22.6714 110.619 22.6806C111.494 23.0998 112.438 23.3853 113.405 23.4774C113.511 23.4774 113.617 23.4867 113.723 23.5097C114.183 23.5373 114.644 23.5235 115.105 23.5143C116.528 23.3899 117.997 23.0445 119.185 22.2063L119.199 22.2247C119.236 22.1924 119.268 22.1648 119.305 22.1372C119.494 21.999 119.678 21.8516 119.862 21.6996C119.904 21.6674 119.95 21.6305 119.991 21.5891C120.194 21.368 120.429 21.1654 120.599 20.912L120.627 20.9259C120.641 20.9028 120.664 20.8568 120.678 20.8337C120.834 20.6219 120.977 20.4008 121.115 20.1797C121.124 20.1659 121.147 20.1429 121.157 20.1291L121.138 20.1106C121.152 20.0922 121.184 20.0554 121.198 20.037C121.451 19.5211 121.677 18.9822 121.755 18.4111C121.788 18.3973 121.806 18.3697 121.806 18.3374C121.811 18.1532 121.875 17.9782 121.857 17.794C121.898 17.5683 121.902 17.338 121.893 17.1077Z" fill="white" stroke="white" stroke-width="0.0043294"/>
<mask id="mask0_1_1264" style="mask-type:luminance" maskUnits="userSpaceOnUse" x="106" y="16" width="16" height="8">
<path d="M121.901 17.1077C121.864 17.0386 121.859 16.9557 121.859 16.8774L121.822 16.882C121.767 16.6794 121.597 16.4859 121.376 16.4767C121.21 16.4629 121.002 16.4675 120.906 16.6241C120.722 16.8728 120.809 17.1906 120.8 17.4716C120.8 17.49 120.805 17.5222 120.805 17.5406C120.805 17.7295 120.781 17.9137 120.749 18.0979C120.722 18.1532 120.708 18.2131 120.708 18.2776C120.63 18.7105 120.473 19.1388 120.261 19.5303C120.22 19.5856 120.187 19.6455 120.174 19.7099C120.035 19.9494 119.87 20.1705 119.699 20.3916C119.672 20.4146 119.649 20.4423 119.625 20.4699C119.506 20.6173 119.377 20.7416 119.243 20.8706C119.211 20.889 119.188 20.912 119.16 20.9305C119.004 21.0825 118.829 21.2252 118.64 21.3404C118.617 21.3542 118.594 21.3726 118.566 21.391C117.387 22.1694 115.955 22.4918 114.559 22.5056C113.375 22.5425 112.182 22.2892 111.114 21.7779C111.096 21.7687 111.05 21.7503 111.031 21.7411C110.851 21.6444 110.667 21.5615 110.501 21.4417C110.465 21.4233 110.428 21.4003 110.386 21.3818C110.216 21.2805 110.055 21.17 109.903 21.041C109.852 20.9949 109.797 20.9581 109.741 20.9166C109.576 20.7831 109.405 20.6403 109.263 20.4791C109.226 20.4376 109.189 20.4008 109.152 20.364C108.65 19.8435 108.259 19.2079 108.051 18.5171C107.853 17.969 107.881 17.3702 107.858 16.7945C107.692 16.5412 107.342 16.3984 107.066 16.555C106.951 16.6379 106.937 16.7899 106.849 16.8958C106.706 18.4157 107.356 19.931 108.392 21.0272C108.392 21.064 108.411 21.0871 108.443 21.1009C108.627 21.2713 108.807 21.4463 108.991 21.6121C109.023 21.6444 109.06 21.6766 109.101 21.7042C109.286 21.8562 109.484 21.9944 109.677 22.1372C109.714 22.1648 109.751 22.1878 109.792 22.2109C110.046 22.3582 110.285 22.5333 110.557 22.6346C110.575 22.6484 110.607 22.6714 110.626 22.6806C111.501 23.0998 112.445 23.3853 113.412 23.4774C113.518 23.4774 113.624 23.4867 113.73 23.5097C114.191 23.5373 114.651 23.5235 115.112 23.5143C116.535 23.3899 118.004 23.0445 119.193 22.2063L119.206 22.2247C119.243 22.1924 119.275 22.1648 119.312 22.1372C119.501 21.999 119.685 21.8516 119.87 21.6996C119.911 21.6674 119.957 21.6305 119.999 21.5891C120.201 21.368 120.436 21.1654 120.607 20.912L120.634 20.9259C120.648 20.9028 120.671 20.8568 120.685 20.8337C120.842 20.6219 120.984 20.4008 121.123 20.1797C121.132 20.1659 121.155 20.1429 121.164 20.1291L121.146 20.1106C121.159 20.0922 121.192 20.0554 121.205 20.037C121.459 19.5211 121.684 18.9822 121.763 18.4111C121.795 18.3973 121.813 18.3697 121.813 18.3374C121.818 18.1532 121.883 17.9782 121.864 17.794C121.905 17.5683 121.91 17.338 121.901 17.1077Z" fill="white"/>
</mask>
<g mask="url(#mask0_1_1264)">
<path d="M106.491 16.9521C106.865 17.0693 107.722 16.7746 107.965 17.0443M106.706 18.0882C107.064 17.9637 107.831 17.6689 108.149 17.8426M107.075 19.2243C107.248 19.2803 107.588 18.9765 107.758 18.8874C108.01 18.7549 108.268 18.6534 108.548 18.6102M107.627 20.4218C107.806 20.1683 108.019 19.9578 108.277 19.7777C108.532 19.5992 109.231 19.1225 109.531 19.2857M108.149 21.2815C108.352 21.1206 108.434 20.8358 108.647 20.6667C108.904 20.4621 109.298 20.4254 109.562 20.299M109.017 21.9186C109.077 21.4733 109.529 20.936 109.961 20.9744M109.685 22.5404C109.912 22.5176 110.105 22.0073 110.26 21.8343C110.491 21.5753 110.73 21.4956 111.035 21.4043M111.005 23.0931C110.99 22.7709 111.323 21.847 111.711 21.8956M111.987 23.4002C111.971 23.0194 112.168 21.874 112.632 21.8342M113.001 24.0143C112.913 23.4818 112.918 22.7114 113.338 22.3255M114.26 24.1371C114.213 23.6932 113.772 22.7959 114.26 22.4483M115.611 23.83C115.4 23.5859 115.278 22.6228 115.365 22.3562M116.9 23.6151C116.738 23.3202 116.536 23.0432 116.475 22.7009C116.438 22.4963 116.503 22.2049 116.47 22.0491M117.975 23.1545C117.623 22.9241 117.525 22.0772 117.637 21.7114M119.019 22.6939C118.768 22.1564 118.501 21.7396 118.497 21.128M120.032 21.7114C119.643 21.4495 119.146 20.9733 119.203 20.4525M121.107 20.8824C120.515 20.7513 119.805 20.2219 119.449 19.7463M121.598 19.8691C121.171 19.7776 119.761 19.2274 119.848 18.6716M122.059 18.7944C121.464 18.5765 120.599 18.3805 120.124 17.9654M122.366 17.8119C121.991 17.8439 121.454 17.6626 121.074 17.5969C120.651 17.524 120.259 17.3815 119.848 17.2898M121.997 16.86C121.275 16.9033 120.597 16.6561 119.94 16.4302" stroke="#D1D1D1" stroke-width="0.0921149"/>
</g>
<path d="M29.5554 19.0745C30.2229 18.9738 30.991 18.9109 31.5576 19.3264C31.9102 19.5908 32.0361 20.0692 32.0109 20.4975C32.0361 21.2026 31.7087 21.9582 31.0792 22.3234C30.5251 22.6257 29.8577 22.6507 29.2406 22.5878C28.8251 22.5375 28.4096 22.3109 28.1955 21.9331C27.7169 20.8375 28.3087 19.2886 29.5554 19.0745ZM9.58354 19.8679C9.62126 19.4901 9.9613 19.1501 10.3516 19.1627C13.2606 19.1627 16.1569 19.1753 19.0532 19.1627C19.368 19.1375 19.7081 19.276 19.8591 19.553C20.0731 19.9308 19.8843 20.3464 19.8591 20.7368C19.771 21.2656 19.7961 21.9709 19.1792 22.1723C17.0636 22.2352 14.948 22.1723 12.8324 22.1975C12.6309 23.5322 12.442 24.8544 12.2405 26.1766C12.2405 26.227 12.2532 26.3405 12.2532 26.3907C13.802 26.3781 15.3509 26.3907 16.8998 26.3781C17.328 26.3529 17.7812 26.7183 17.7434 27.1715C17.7057 27.6374 17.6049 28.0907 17.542 28.5567C17.4916 28.8715 17.2398 29.1611 16.9123 29.2241C15.1871 29.2618 13.4367 29.1863 11.7117 29.2618C11.4345 31.1633 11.1071 33.0647 10.8175 34.9663C10.7798 35.3441 10.4775 35.6715 10.0997 35.684C9.382 35.6966 8.66413 35.6966 7.94643 35.684C7.48051 35.6966 7.1027 35.1802 7.22858 34.7395C7.99695 29.7782 8.79024 24.8294 9.58354 19.8679ZM22.3776 19.1878C23.0324 19.1375 23.6998 19.1753 24.3547 19.1627C24.7577 19.1375 25.1606 19.4523 25.1983 19.8679C25.1983 20.1952 25.1101 20.5227 25.0724 20.8501C24.5435 24.2249 24.002 27.5998 23.4731 30.9746C23.3975 31.516 23.259 32.0952 23.4228 32.6494C23.6117 33.2034 24.4552 32.9641 24.6568 33.5433C24.7827 34.0093 24.6441 34.5004 24.6064 34.9789C24.5686 35.6086 23.8508 35.747 23.3598 35.8857C22.2895 36.0871 20.9923 35.936 20.2242 35.0544C19.6701 34.4124 19.6323 33.5056 19.7457 32.6998C20.4131 28.4183 21.0805 24.1368 21.7606 19.8427C21.7984 19.5278 22.0502 19.2382 22.3776 19.1878ZM47.3739 19.8679C47.4116 19.4901 47.7517 19.1627 48.1294 19.1627H50.0435C50.522 19.1501 50.9125 19.6664 50.7991 20.1197C50.3584 22.9153 49.9051 25.7109 49.4643 28.5063C50.1317 28.4056 50.8873 28.2797 51.3533 27.7382C52.1339 26.8566 52.7762 25.8368 53.2547 24.7665C53.4183 24.3508 53.5065 23.7464 54.048 23.6708C54.7658 23.6456 55.4961 23.6582 56.2139 23.6708C56.7051 23.6582 57.0702 24.2123 56.9065 24.6656C56.7177 25.3331 56.4029 25.9501 56.0755 26.542C55.3451 27.7257 54.5392 28.8967 53.4813 29.8286C53.9473 31.2263 54.5392 32.5864 55.0554 33.959C55.2065 34.4123 55.5718 34.9411 55.2317 35.382C54.8413 35.9108 54.1109 35.6463 53.5695 35.7092C53.0028 35.6463 52.1843 35.9359 51.8695 35.2938C51.2776 33.9211 50.7866 32.5109 50.182 31.1382C49.8294 31.1507 49.4643 31.1634 49.1116 31.1256C49.0866 31.176 49.0361 31.2767 49.0109 31.3271C48.822 32.5864 48.6206 33.8457 48.419 35.1048C48.3434 35.4071 48.1042 35.6716 47.7768 35.6968C47.1095 35.7219 46.4294 35.7092 45.7494 35.7092C45.4597 35.7092 45.1954 35.5204 45.0694 35.2686C44.9435 35.0166 45.019 34.7271 45.0569 34.4501C45.8376 29.5893 46.6057 24.7285 47.3739 19.8679ZM82.3687 21.2405C82.4569 20.8878 82.7968 20.6486 83.1495 20.6611C83.6532 20.6738 84.1695 20.6486 84.6857 20.6738C85.1013 20.6863 85.4287 21.1019 85.3783 21.5049C85.3027 22.2227 85.1264 22.9405 85.0761 23.6581C85.5672 23.6581 86.0708 23.6456 86.562 23.6581C87.0028 23.6581 87.368 24.1115 87.2924 24.5396C87.2294 24.9301 87.1412 25.3079 87.0782 25.6981C87.0153 26.0256 86.7383 26.29 86.4235 26.3404C85.819 26.3781 85.2272 26.3152 84.6354 26.3781C84.3835 28.0655 84.1065 29.7528 83.842 31.4404C83.8042 31.8307 83.7791 32.2714 84.0057 32.6115C84.3458 33.027 84.9375 32.8758 85.4161 32.9263C85.7939 33.0396 86.0331 33.4552 85.9701 33.8331C85.9072 34.2611 85.8946 34.6893 85.7939 35.1048C85.6428 35.5707 85.1013 35.6589 84.6857 35.7722C83.5397 36.0745 82.2175 36.0745 81.1976 35.407C80.2532 34.7647 80.102 33.5181 80.2028 32.4603C80.4671 30.4203 80.8828 28.3929 81.1094 26.3403C80.7569 26.3529 80.3287 26.4033 80.0643 26.0884C79.7621 25.7737 79.9132 25.3077 79.9635 24.9172C80.0392 24.5017 80.0265 23.9603 80.4799 23.7336C80.845 23.595 81.2606 23.6958 81.651 23.6454C81.8902 22.8396 82.1169 22.0338 82.3687 21.2405ZM75.2539 25.3204C76.0472 24.527 77.0042 23.8722 78.0998 23.5449C78.5783 23.3308 79.1953 23.7338 79.1828 24.2627C79.0947 24.9553 78.9309 25.6352 78.8176 26.3152C78.7671 26.6552 78.4775 26.9449 78.1375 26.9826C76.9034 27.1966 75.8331 27.9395 74.9768 28.8211C74.7628 29.0856 74.4479 29.3374 74.4102 29.7026C74.1458 31.4655 73.8687 33.2285 73.5917 34.9914C73.5539 35.3691 73.2264 35.7345 72.8361 35.7093H70.9219C70.4813 35.7345 70.0909 35.2938 70.1413 34.853C70.6953 31.3648 71.2495 27.8893 71.7909 24.4011C71.8161 24.0486 72.068 23.7086 72.4331 23.6707C72.8991 23.6456 73.3649 23.6581 73.8435 23.6581C74.2213 23.6581 74.5738 23.9981 74.5738 24.3886C74.5738 24.93 74.5235 25.484 74.5109 26.0381C74.8132 25.8494 75.002 25.5471 75.2539 25.3204ZM28.1828 23.7211C28.8628 23.5827 29.5679 23.696 30.2479 23.6582C30.6384 23.6079 31.0539 23.8597 31.1168 24.2501C31.1673 24.6026 31.0664 24.9427 31.0286 25.2827C30.5124 28.5191 29.996 31.7553 29.4923 34.9916C29.4546 35.3569 29.1525 35.722 28.762 35.7093C28.082 35.7093 27.402 35.722 26.7095 35.6968C26.2813 35.6464 25.9664 35.1554 26.0798 34.7397C26.6213 31.3776 27.1377 28.0279 27.6791 24.6656C27.7043 24.3004 27.8051 23.8722 28.1828 23.7211ZM68.9324 23.885C67.056 23.5323 65.1421 23.2804 63.2405 23.4693C61.5405 23.6834 59.8279 24.4516 58.7828 25.8494C57.3346 27.6878 56.8435 30.156 57.1708 32.448C57.3472 33.5434 57.8257 34.6516 58.7198 35.3316C59.5509 35.9738 60.6716 36.0619 61.6791 35.8982C63.0893 35.6211 64.2856 34.7147 65.2679 33.7072C65.3182 34.1353 65.2175 34.5635 65.2427 34.979C65.2679 35.3693 65.6205 35.7345 66.0108 35.7093H67.2954C67.6731 35.7093 67.988 35.3569 68.0132 34.9915C68.5546 31.5789 69.0961 28.1789 69.625 24.779C69.7005 24.3508 69.3606 23.9353 68.9324 23.885ZM65.394 29.816C64.8902 30.7605 64.1849 31.6168 63.3916 32.347C62.9384 32.7248 62.359 33.1152 61.7421 32.9894C61.1376 32.8634 60.8479 32.2338 60.7095 31.6923C60.3947 30.282 60.6843 28.7456 61.4775 27.5242C61.8302 26.9574 62.3968 26.5293 63.0517 26.353C63.9709 26.1263 64.9406 26.2396 65.8347 26.4915L65.885 26.542C65.7717 27.6374 65.5576 28.7204 65.394 29.816ZM44.2132 27.9271C44.2005 26.6678 43.8606 25.3457 42.9791 24.4012C42.3747 23.7338 41.468 23.3938 40.5865 23.4063C39.1257 23.356 37.7532 24.0738 36.6829 25.0308C36.4435 25.2197 36.2799 25.4968 36.0155 25.6479C36.0155 25.2322 36.0532 24.8167 36.0405 24.3886C36.0532 23.9981 35.688 23.6582 35.3102 23.6582H34.0257C33.6228 23.6582 33.2954 24.0108 33.2702 24.4011C32.4768 29.4382 31.671 34.4752 30.8776 39.5123C30.7644 39.9782 31.1674 40.4567 31.6459 40.4441C32.351 40.4315 33.0688 40.4945 33.7614 40.3936C34.3155 40.2425 34.3028 39.6003 34.391 39.1344C34.5924 38.0262 34.7311 36.9181 34.857 35.7973C37.3377 36.2758 40.2214 35.9486 42.0725 34.0722C43.5835 32.4227 44.2887 30.1434 44.2132 27.9271ZM40.6873 29.1989C40.6118 30.3575 40.1962 31.5286 39.3903 32.3722C38.3452 33.3671 36.7583 33.2285 35.4739 32.8886C35.4489 32.8508 35.411 32.7752 35.3984 32.7375C35.5999 31.642 35.7006 30.5338 35.9525 29.4508C36.6577 28.2924 37.5139 27.1211 38.7354 26.479C39.1887 26.265 39.8058 26.3153 40.1332 26.7309C40.6873 27.4235 40.7377 28.3553 40.6873 29.1989Z" fill="white" stroke="white" stroke-width="0.0046518"/>
</g>
<defs>
<linearGradient id="paint0_linear_1_1264" x1="114.36" y1="15.498" x2="114.36" y2="42.5689" gradientUnits="userSpaceOnUse">
<stop stop-color="#F7E830"/>
<stop offset="1" stop-color="#FDCB06"/>
</linearGradient>
<radialGradient id="paint1_radial_1_1264" cx="0" cy="0" r="1" gradientUnits="userSpaceOnUse" gradientTransform="translate(114.218 27.8452) scale(22.0191 22.0191)">
<stop offset="0.596" stop-color="#F29405"/>
<stop offset="0.736" stop-color="#F7D01E"/>
<stop offset="1" stop-color="#FDCB06"/>
</radialGradient>
<linearGradient id="paint2_linear_1_1264" x1="121.892" y1="16.4752" x2="121.9" y2="17.7572" gradientUnits="userSpaceOnUse">
<stop stop-color="#FADA1C"/>
<stop offset="1" stop-color="#FDCB06"/>
</linearGradient>
<linearGradient id="paint3_linear_1_1264" x1="106.815" y1="16.4137" x2="106.807" y2="17.6957" gradientUnits="userSpaceOnUse">
<stop stop-color="#FADA1C"/>
<stop offset="1" stop-color="#FDCB06"/>
</linearGradient>
<clipPath id="clip0_1_1264">
<rect width="123.585" height="32.5809" fill="white" transform="translate(7.20752 9.99023)"/>
</clipPath>
</defs>
</svg>
