<svg width="112" height="51" viewBox="0 0 112 51" fill="none" xmlns="http://www.w3.org/2000/svg">
<g clip-path="url(#clip0_1_45276)">
<path d="M98.2054 22.662C98.2054 23.0869 97.8715 23.4208 97.4466 23.4208C97.0216 23.4208 96.6877 23.0869 96.6877 22.662C96.6877 22.237 97.0216 21.9031 97.4466 21.9031C97.8715 21.9031 98.2054 22.237 98.2054 22.662ZM95.9441 20.3855C95.9441 20.8104 95.6102 21.1443 95.1852 21.1443C94.7603 21.1443 94.4264 20.8104 94.4264 20.3855C94.4264 19.9605 94.7603 19.6266 95.1852 19.6266C95.6102 19.6266 95.9441 19.9757 95.9441 20.3855ZM98.2054 20.3855C98.2054 20.8104 97.8715 21.1443 97.4466 21.1443C97.0216 21.1443 96.6877 20.8104 96.6877 20.3855C96.6877 19.9605 97.0216 19.6266 97.4466 19.6266C97.8715 19.6266 98.2054 19.9757 98.2054 20.3855ZM93.6676 20.3855C93.6676 20.8104 93.3337 21.1443 92.9087 21.1443C92.4838 21.1443 92.1499 20.8104 92.1499 20.3855C92.1499 19.9605 92.4838 19.6266 92.9087 19.6266C93.3337 19.6266 93.6676 19.9757 93.6676 20.3855ZM99.4954 17.9572C99.7838 18.2455 99.7838 18.7312 99.4954 19.0347C99.2071 19.3231 98.7214 19.3231 98.4331 19.0347C98.1447 18.7464 98.1447 18.2607 98.4331 17.9572C98.7214 17.6688 99.1919 17.6688 99.4954 17.9572ZM101.377 16.4547C101.666 16.7431 101.666 17.2287 101.377 17.5322C101.089 17.8206 100.603 17.8206 100.315 17.5322C100.027 17.2439 100.027 16.7582 100.315 16.4547C100.603 16.1512 101.089 16.1512 101.377 16.4547ZM91.0268 20.3855C91.0268 20.8104 90.6929 21.1443 90.268 21.1443C89.8431 21.1443 89.5092 20.8104 89.5092 20.3855C89.5092 19.9605 89.8431 19.6266 90.268 19.6266C90.6929 19.6266 91.0268 19.9757 91.0268 20.3855ZM88.7655 20.3855C88.7655 20.8104 88.4316 21.1443 88.0067 21.1443C87.5817 21.1443 87.2478 20.8104 87.2478 20.3855C87.2478 19.9605 87.5817 19.6266 88.0067 19.6266C88.4316 19.6266 88.7655 19.9757 88.7655 20.3855ZM97.4466 24.1796C97.8563 24.1796 98.2054 24.5135 98.2054 24.9385C98.2054 25.3634 97.8715 25.6973 97.4466 25.6973C97.0216 25.6973 96.6877 25.3634 96.6877 24.9385C96.6877 24.5135 97.0368 24.1796 97.4466 24.1796ZM89.1449 31.7376C89.1449 32.1626 88.811 32.4964 88.3861 32.4964C87.9612 32.4964 87.6273 32.1626 87.6273 31.7376C87.6273 31.3127 87.9612 30.9788 88.3861 30.9788C88.811 30.994 89.1449 31.3278 89.1449 31.7376ZM86.8836 29.4763C86.8836 29.9012 86.5497 30.2351 86.1248 30.2351C85.6998 30.2351 85.3659 29.9012 85.3659 29.4763C85.3659 29.0513 85.6998 28.7175 86.1248 28.7175C86.5497 28.7175 86.8836 29.0513 86.8836 29.4763ZM89.1449 29.4763C89.1449 29.9012 88.811 30.2351 88.3861 30.2351C87.9612 30.2351 87.6273 29.9012 87.6273 29.4763C87.6273 29.0513 87.9612 28.7175 88.3861 28.7175C88.811 28.7175 89.1449 29.0513 89.1449 29.4763ZM84.6223 29.4763C84.6223 29.9012 84.2884 30.2351 83.8634 30.2351C83.4385 30.2351 83.1046 29.9012 83.1046 29.4763C83.1046 29.0513 83.4385 28.7175 83.8634 28.7175C84.2884 28.7175 84.6223 29.0513 84.6223 29.4763ZM88.3861 33.2553C88.7959 33.2553 89.1449 33.5892 89.1449 34.0141C89.1449 34.4391 88.811 34.7729 88.3861 34.7729C87.9612 34.7729 87.6273 34.4391 87.6273 34.0141C87.6424 33.6043 87.9763 33.2553 88.3861 33.2553ZM97.4466 26.441C97.8563 26.441 98.2054 26.7748 98.2054 27.1998C98.2054 27.6247 97.8715 27.9586 97.4466 27.9586C97.0216 27.9586 96.6877 27.6247 96.6877 27.1998C96.6877 26.7748 97.0368 26.441 97.4466 26.441ZM97.4466 29.0969C97.8563 29.0969 98.2054 29.4308 98.2054 29.8557C98.2054 30.2807 97.8715 30.6145 97.4466 30.6145C97.0216 30.6145 96.6877 30.2807 96.6877 29.8557C96.6877 29.4308 97.0368 29.0969 97.4466 29.0969ZM92.5445 26.0615C92.5445 26.4865 92.2106 26.8204 91.7857 26.8204C91.3607 26.8204 91.0268 26.4865 91.0268 26.0615C91.0268 25.6366 91.3607 25.3027 91.7857 25.3027C92.2106 25.3179 92.5445 25.6518 92.5445 26.0615ZM93.8345 23.6333C94.1229 23.9216 94.1229 24.4073 93.8345 24.7108C93.5462 24.9992 93.0605 24.9992 92.7721 24.7108C92.4838 24.4225 92.4838 23.9368 92.7721 23.6333C93.0605 23.3449 93.531 23.3449 93.8345 23.6333ZM95.7164 22.1308C96.0048 22.4191 96.0048 22.9048 95.7164 23.2083C95.4281 23.4967 94.9424 23.4967 94.6541 23.2083C94.3657 22.92 94.3657 22.4343 94.6541 22.1308C94.9424 21.8272 95.4281 21.8272 95.7164 22.1308ZM90.8144 27.048C91.1027 27.3364 91.1027 27.822 90.8144 28.1256C90.526 28.4139 90.0404 28.4139 89.752 28.1256C89.4636 27.8372 89.4636 27.3516 89.752 27.048C90.0404 26.7445 90.5108 26.7445 90.8144 27.048ZM60.9618 32.5268C59.2013 34.0141 57.1373 34.7729 54.7698 34.7729C52.2201 34.7729 50.0195 33.8775 48.1679 32.1019C46.3315 30.2958 45.4057 28.1104 45.4057 25.5304C45.4057 22.9503 46.3315 20.7649 48.1679 18.9589C50.0195 17.1377 52.2201 16.2271 54.7698 16.2271C56.2722 16.2271 57.5926 16.4699 58.746 16.9707C59.8843 17.4564 61.0377 18.2759 62.1912 19.4293L62.2822 19.5204L60.5065 21.4478L60.4003 21.3568C59.2621 20.4158 58.397 19.7784 57.7747 19.4445C56.8641 18.9589 55.8625 18.7312 54.7698 18.7312C52.8727 18.7312 51.3095 19.399 50.0498 20.7193C48.7901 22.0397 48.1527 23.6484 48.1527 25.5152C48.1527 27.3819 48.7901 28.9603 50.0498 30.2958C51.3095 31.6162 52.8878 32.284 54.7698 32.284C56.5151 32.284 58.0024 31.7831 59.2013 30.7663C60.461 29.7191 61.0984 28.3836 61.1288 26.7445H54.9519V24.2555H63.9061V25.8946C63.9213 28.6567 62.9348 30.8574 60.9618 32.5268ZM76.3662 32.9062C75.1065 34.1204 73.5888 34.7274 71.8283 34.7274C70.0678 34.7274 68.5654 34.1204 67.3057 32.9062C66.046 31.6921 65.4086 30.1441 65.4086 28.2925C65.4086 26.441 66.0308 24.9081 67.2753 23.7092C68.535 22.4798 70.0527 21.8728 71.8132 21.8728C73.5737 21.8728 75.0761 22.4798 76.3358 23.7092C77.6258 24.9233 78.2633 26.4561 78.2633 28.2925C78.2633 30.1289 77.641 31.6921 76.3662 32.9062ZM74.5753 25.3634C73.862 24.6198 72.9514 24.2403 71.8283 24.2403C70.7053 24.2403 69.7795 24.6198 69.051 25.3634C68.3529 26.0919 68.0038 27.0632 68.0038 28.2925C68.0038 29.5218 68.3681 30.4628 69.0814 31.2216C69.7947 31.9653 70.7053 32.3447 71.8283 32.3447C72.9514 32.3447 73.862 31.9653 74.5753 31.2216C75.2886 30.478 75.6529 29.5066 75.6529 28.2925C75.6529 27.0936 75.2886 26.1222 74.5753 25.3634ZM43.5238 20.5676C43.2658 20.8559 42.9016 20.9925 42.4311 20.9925C41.991 20.9925 41.6268 20.8559 41.3384 20.5676C41.0804 20.264 40.9438 19.915 40.9438 19.5052C40.9438 19.0954 41.0804 18.7464 41.3384 18.4732C41.6116 18.1848 41.9758 18.0483 42.4311 18.0483C42.8864 18.0483 43.2355 18.2 43.4935 18.5036C43.7667 18.7767 43.9184 19.1258 43.9184 19.5052C43.9184 19.9302 43.797 20.2944 43.5238 20.5676ZM41.1715 34.4694V22.1156H43.6908V34.4694H41.1715ZM37.6808 32.8455C36.5122 34.09 35.0097 34.7122 33.1885 34.7122C31.2611 34.7122 29.6827 34.0445 28.4838 32.7089C27.3607 31.4493 26.7991 29.8709 26.7991 27.9738C26.7991 26.2588 27.3759 24.817 28.5445 23.6333C29.7282 22.4343 31.1245 21.8424 32.7636 21.8424C34.0536 21.8424 35.2222 22.1308 36.2694 22.6923L36.3453 22.7378V25.4241L36.1328 25.2723C35.723 24.9992 35.2222 24.7563 34.6607 24.5439C34.1143 24.3314 33.6135 24.2252 33.1582 24.2252C31.9896 24.2252 31.0638 24.5894 30.3657 25.3179C29.6675 26.0464 29.3185 27.0177 29.3185 28.247C29.3185 29.4763 29.6827 30.4324 30.396 31.1913C31.1245 31.9349 32.0654 32.3143 33.2189 32.3143C34.2964 32.3143 35.1767 31.9046 35.89 31.1002C36.6033 30.2958 36.9675 29.0969 36.9675 27.5185V16.5154H39.4565V27.9131C39.4565 29.9468 38.8646 31.5858 37.6808 32.8455ZM22.7773 34.4694V27.2757C22.7773 26.3954 22.5041 25.6821 21.9578 25.1206C21.4266 24.5439 20.774 24.2555 19.9696 24.2555C19.2108 24.2555 18.5582 24.5439 17.9815 25.1206C17.4351 25.6821 17.162 26.3954 17.162 27.2757V34.4694H14.673V27.2757C14.673 25.6821 15.1738 24.3769 16.1603 23.3753C17.162 22.3584 18.4368 21.8576 19.9696 21.8576C21.5025 21.8576 22.7621 22.3584 23.779 23.3753C24.7958 24.3921 25.2967 25.6973 25.2967 27.2757V34.4694H22.7773ZM10.5449 34.4694V16.5306H13.1857V34.4694H10.5449Z" fill="white"/>
</g>
<defs>
<clipPath id="clip0_1_45276">
<rect width="91.0494" height="18.5459" fill="white" transform="translate(10.5444 16.2271)"/>
</clipPath>
</defs>
</svg>
