<svg width="138" height="51" viewBox="0 0 138 51" fill="none" xmlns="http://www.w3.org/2000/svg">
<path fill-rule="evenodd" clip-rule="evenodd" d="M31.5045 19.7722C27.1731 19.7722 24.4482 22.787 24.4482 27.0016C24.4482 31.0647 27.458 33.7981 31.5045 33.7981C35.0849 33.7981 37.8848 31.7553 38.2738 28.2035H33.9958C33.7869 29.6097 33.0083 30.4769 31.4783 30.4769C29.6101 30.4769 28.8586 28.7153 28.8586 27.0016C28.8586 25.1641 29.2477 23.093 31.7118 23.093C32.8261 23.093 33.8383 23.8882 33.8659 25.0111H38.143C37.8339 21.5101 34.8514 19.7722 31.5045 19.7722ZM78.7641 19.7717C76.8551 19.7717 75.5128 20.6359 74.7101 22.0265H74.6557V20.1557H70.3782V33.4156H74.7866V26.5305C74.7866 24.5948 75.6336 23.3462 77.1722 23.3467C79.4602 23.3467 79.3782 25.1877 79.3782 27.0006V33.4156H83.7881V24.9064C83.7881 22.9898 83.252 19.7717 78.7641 19.7717ZM91.6355 19.7717C90.1039 19.7717 88.5482 20.0284 87.3544 20.6938C86.1616 21.3813 85.3312 22.5067 85.2542 24.2435H89.3787C89.5865 23.1197 90.3642 22.5847 91.5831 22.5847C92.4921 22.5847 93.7096 22.9641 93.7096 23.9607C93.7096 24.7811 93.2943 25.0342 92.5429 25.1887C89.4824 25.8002 84.7096 25.4696 84.7096 29.7853C84.7096 32.5208 86.7329 33.7971 89.2987 33.7971C90.9092 33.7971 92.5963 33.3376 93.7362 32.1634C93.7891 32.5978 93.8394 33.0049 93.9949 33.4156H98.432C97.9131 32.3683 97.9136 31.1407 97.9136 30.0159V24.2159C97.9136 20.4628 94.8239 19.7717 91.635 19.7717H91.6355ZM93.6587 27.2064C93.7624 29.9414 93.0603 31.1146 90.9606 31.1146C89.9746 31.1146 89.1195 30.6792 89.1195 29.6092C89.1195 28.5598 89.9504 28.1506 90.9354 27.9216C91.8967 27.6665 93.0367 27.5915 93.6582 27.207L93.6587 27.2064ZM99.3531 17.2004V33.4166H103.762V17.1999L99.3531 17.2004ZM114.258 17.2004V21.5876H114.203C113.296 20.3868 112.025 19.7732 110.365 19.7732C106.551 19.7732 104.685 23.0432 104.685 26.4918C104.685 30.2217 106.475 33.7981 110.702 33.7981C112.259 33.7981 113.556 33.1343 114.412 31.8821H114.463V33.4161H118.667V17.2004H114.258ZM111.792 23.094C113.711 23.094 114.412 24.8581 114.412 26.7731C114.412 28.4581 113.945 30.4769 111.792 30.4769C109.768 30.4769 109.095 28.4587 109.095 26.6453C109.095 24.9602 109.768 23.094 111.792 23.094ZM119.587 17.2004V21.5866H121.65L123.711 17.2004H119.587ZM39.1959 17.2004V33.4166H46.2753C51.278 33.4166 54.3446 30.5544 54.3446 25.2421C54.3446 20.2207 51.3233 17.2004 46.2753 17.2004H39.1959ZM43.8947 20.96H45.8756C48.4379 20.96 49.5865 22.6471 49.5865 25.2295C49.5865 28.0701 48.6604 29.6585 45.8756 29.6585H43.8947V20.96ZM5.88761 17.1777L2.48633 33.4161H7.34265L8.59435 26.9674C8.72826 26.2548 8.84222 25.5387 8.93609 24.8198H8.98491C9.06141 25.2688 9.25921 26.1576 9.45801 26.916L11.2226 33.4161H16.0492L17.8107 26.916C18.0116 26.1576 18.2083 25.2688 18.2838 24.8198H18.3357C18.3785 25.1646 18.5138 26.1369 18.6764 26.9674L19.9281 33.4161H24.7834L21.3826 17.1777H16.2359L14.1739 25.3337C14.0013 25.9658 13.7884 26.9895 13.6595 27.5235H13.6112C13.4804 26.9895 13.269 25.9658 13.0969 25.3337L11.0338 17.1777L5.88761 17.1777ZM62.3486 19.7722C58.0021 19.7722 55.2642 22.8137 55.2642 26.7973C55.2642 30.7819 58.0011 33.8223 62.3476 33.8223C66.6946 33.8223 69.43 30.7824 69.43 26.7973C69.43 22.8137 66.6951 19.7722 62.3486 19.7722ZM62.3476 23.093C64.2536 23.093 65.0186 24.6749 65.0186 26.7973C65.0186 28.9217 64.2541 30.5015 62.3481 30.5015C60.4406 30.5015 59.6756 28.9217 59.6756 26.7973C59.6756 24.6744 60.4401 23.093 62.3476 23.093ZM128.956 19.7707C126.345 19.7707 122.775 20.6389 122.775 23.8333C122.775 27.4103 126.32 27.4853 129.059 28.1758C129.826 28.356 131.184 28.5588 131.184 29.5815C131.184 30.6304 129.98 30.9877 129.135 30.9877C128.52 30.9877 127.99 30.8342 127.581 30.5272C127.146 30.194 126.865 29.7073 126.865 29.045H122.658C122.787 32.7513 126.012 33.7971 129.161 33.7971C132.157 33.7971 135.65 32.6214 135.65 29.0712C135.65 27.9725 134.961 26.0302 132.272 25.4922C130.275 25.0604 127.242 24.8309 127.242 23.5787C127.242 22.6576 128.395 22.5811 129.11 22.5811C129.649 22.5811 130.076 22.6838 130.435 22.9133C130.793 23.1438 130.999 23.5007 130.999 24.0628H135.075C134.922 20.6143 131.875 19.7707 128.956 19.7707Z" fill="white"/>
</svg>
