<svg width="137" height="51" viewBox="0 0 137 51" fill="none" xmlns="http://www.w3.org/2000/svg">
<g clip-path="url(#clip0_1_45265)">
<path d="M51.0648 27.5723L50.3547 29.7293H50.2955C50.1772 29.2429 49.9602 28.5028 49.6051 27.6146L45.7983 17.3581H42.0703V33.7051H44.5359V23.6177C44.5359 22.9833 44.5359 22.2643 44.5162 21.3761C44.4964 20.932 44.457 20.5936 44.4373 20.3399H44.4964C44.6148 20.9743 44.7529 21.4395 44.8515 21.7356L49.4276 33.6628H51.1634L55.7001 21.6298C55.7987 21.3549 55.8973 20.8051 55.9959 20.3399H56.0551C55.9959 21.5453 55.9565 22.6238 55.9368 23.2794V33.6416H58.5602V17.3158H54.9703L51.0648 27.5723ZM61.0455 21.9259H63.6097V33.6416H61.0455V21.9259ZM62.3473 16.9774C61.9134 16.9774 61.5583 17.1466 61.2624 17.4426C60.9666 17.7387 60.8088 18.1194 60.8088 18.5846C60.8088 19.0287 60.9666 19.4094 61.2624 19.7054C61.5583 20.0015 61.9134 20.1495 62.3473 20.1495C62.7812 20.1495 63.156 19.9803 63.4322 19.7054C63.728 19.4094 63.8858 19.0287 63.8858 18.5846C63.8858 18.1405 63.728 17.7599 63.4322 17.4426C63.1757 17.1466 62.801 16.9774 62.3473 16.9774ZM72.7028 21.8202C72.2294 21.7144 71.7363 21.651 71.2629 21.651C70.0991 21.651 69.034 21.9259 68.1464 22.4757C67.2587 23.0256 66.5487 23.7869 66.095 24.7385C65.6216 25.7113 65.3849 26.8321 65.3849 28.1221C65.3849 29.2429 65.6216 30.2369 66.0753 31.1462C66.5289 32.0344 67.1601 32.7534 68.0083 33.2398C68.817 33.7262 69.7638 33.98 70.8289 33.98C72.0519 33.98 73.0973 33.7051 73.9257 33.1975L73.9454 33.1764V30.6387L73.8468 30.7233C73.472 31.0193 73.0381 31.2731 72.6041 31.4211C72.1505 31.5903 71.7363 31.6749 71.3812 31.6749C70.3555 31.6749 69.5468 31.3577 68.9748 30.6598C68.3831 29.9831 68.0872 29.0526 68.0872 27.8895C68.0872 26.6841 68.3831 25.7325 68.9945 25.0346C69.606 24.3367 70.4147 23.9772 71.4009 23.9772C72.2294 23.9772 73.0775 24.2733 73.8468 24.8654L73.9454 24.95V22.2643L73.9257 22.2431C73.5904 22.0951 73.2156 21.9259 72.7028 21.8202ZM81.1647 21.7356C80.5335 21.7356 79.9417 21.9471 79.4289 22.3912C78.9949 22.7718 78.6991 23.3216 78.4427 23.9772H78.4229V21.9259H75.8587V33.6416H78.4229V27.6569C78.4229 26.6418 78.6202 25.7959 79.0541 25.1826C79.4881 24.5482 80.0404 24.231 80.711 24.231C80.9477 24.231 81.1844 24.2944 81.4803 24.3367C81.7564 24.4213 81.9537 24.5059 82.0917 24.6116L82.1903 24.6962V21.9471L82.1312 21.9259C81.9537 21.799 81.5986 21.7356 81.1647 21.7356ZM88.1472 21.6721C86.3523 21.6721 84.9124 22.2431 83.9064 23.3639C82.8807 24.4848 82.3876 26.0285 82.3876 27.9741C82.3876 29.7928 82.9004 31.2731 83.8867 32.3516C84.8729 33.409 86.2142 33.9588 87.8908 33.9588C89.6463 33.9588 91.0467 33.3879 92.0527 32.2459C93.0784 31.1039 93.5715 29.5813 93.5715 27.6992C93.5715 25.8382 93.0981 24.3579 92.1316 23.2794C91.2045 22.2008 89.8435 21.6721 88.1472 21.6721ZM90.1986 30.681C89.7252 31.3366 88.9756 31.6538 88.0486 31.6538C87.1215 31.6538 86.372 31.3366 85.8394 30.6387C85.3069 29.9831 85.0504 29.0315 85.0504 27.8261C85.0504 26.5784 85.3266 25.6267 85.8394 24.95C86.372 24.2733 87.1018 23.9349 88.0289 23.9349C88.9362 23.9349 89.6463 24.2521 90.1591 24.9077C90.672 25.5633 90.9481 26.5149 90.9481 27.7626C90.9087 29.0315 90.6917 30.0254 90.1986 30.681ZM99.2917 26.7898C98.483 26.4303 97.9701 26.1554 97.7334 25.9228C97.5362 25.7113 97.4375 25.4152 97.4375 25.0346C97.4375 24.7174 97.5559 24.4002 97.8518 24.1887C98.1476 23.9772 98.4829 23.8715 98.9761 23.8715C99.41 23.8715 99.8637 23.9561 100.298 24.083C100.732 24.2098 101.126 24.4002 101.442 24.6539L101.54 24.7385V22.1585L101.481 22.1374C101.185 22.0105 100.791 21.8836 100.317 21.7779C99.844 21.6933 99.41 21.651 99.055 21.651C97.832 21.651 96.8261 21.9682 96.0371 22.6661C95.2481 23.3216 94.8733 24.2098 94.8733 25.2461C94.8733 25.7959 94.9522 26.2823 95.1297 26.6841C95.3073 27.0859 95.5637 27.4666 95.9187 27.7838C96.2738 28.0798 96.7866 28.4182 97.4967 28.7354C98.0885 29.0103 98.5421 29.2218 98.8183 29.391C99.0944 29.5602 99.2719 29.7505 99.41 29.8985C99.5086 30.0677 99.5678 30.2792 99.5678 30.5541C99.5678 31.3366 99.0155 31.7172 97.8912 31.7172C97.4573 31.7172 97.0036 31.6326 96.471 31.4423C95.9385 31.252 95.4453 30.977 95.0311 30.6598L94.9325 30.5752V33.261L94.9917 33.2821C95.3664 33.4724 95.8201 33.5993 96.3724 33.7474C96.9247 33.8531 97.4178 33.9377 97.8518 33.9377C99.1733 33.9377 100.258 33.6205 101.027 32.9226C101.816 32.2459 102.231 31.3788 102.231 30.258C102.231 29.4756 102.033 28.7777 101.599 28.249C101.027 27.7415 100.317 27.2128 99.2917 26.7898ZM108.996 21.6721C107.201 21.6721 105.761 22.2431 104.755 23.3639C103.749 24.4848 103.237 26.0285 103.237 27.9741C103.237 29.7928 103.749 31.2731 104.736 32.3516C105.722 33.409 107.063 33.9588 108.74 33.9588C110.495 33.9588 111.896 33.3879 112.902 32.2459C113.927 31.1039 114.421 29.5813 114.421 27.6992C114.421 25.8382 113.947 24.3579 112.981 23.2794C112.054 22.2008 110.693 21.6721 108.996 21.6721ZM111.028 30.681C110.554 31.3366 109.805 31.6538 108.878 31.6538C107.931 31.6538 107.201 31.3366 106.669 30.6387C106.136 29.9831 105.88 29.0315 105.88 27.8261C105.88 26.5784 106.156 25.6267 106.669 24.95C107.201 24.2733 107.931 23.9349 108.858 23.9349C109.746 23.9349 110.476 24.2521 110.988 24.9077C111.501 25.5633 111.777 26.5149 111.777 27.7626C111.777 29.0315 111.521 30.0254 111.028 30.681ZM128.129 24.1887V21.9259H125.545V18.4577L125.466 18.4789L123.02 19.2613L122.961 19.2825V21.9259H119.095V20.4456C119.095 19.7689 119.253 19.2402 119.529 18.9018C119.805 18.5635 120.22 18.3943 120.732 18.3943C121.087 18.3943 121.462 18.4789 121.876 18.6692L121.975 18.7326V16.343L121.916 16.3218C121.561 16.1949 121.087 16.1104 120.476 16.1104C119.707 16.1104 119.036 16.3007 118.425 16.6179C117.813 16.9774 117.359 17.4638 117.024 18.1194C116.689 18.7538 116.511 19.4728 116.511 20.2976V21.9259H114.716V24.1675H116.511V33.6416H119.095V24.1887H122.961V30.2157C122.961 32.69 124.046 33.9377 126.216 33.9377C126.571 33.9377 126.946 33.8743 127.301 33.8108C127.676 33.7262 127.952 33.6205 128.109 33.5359L128.129 33.5147V31.252L128.031 31.3366C127.873 31.4423 127.735 31.5269 127.498 31.5903C127.301 31.6538 127.123 31.6749 126.985 31.6749C126.472 31.6749 126.117 31.548 125.861 31.2308C125.624 30.9347 125.506 30.4484 125.506 29.7293V24.1887H128.129Z" fill="white"/>
<path d="M9.01074 11.8599H21.102V24.8233H9.01074V11.8599Z" fill="#F25022"/>
<path d="M22.3633 11.8599H34.4545V24.8233H22.3633V11.8599Z" fill="#7FBA00"/>
<path d="M9.01074 26.1768H21.102V39.1402H9.01074V26.1768Z" fill="#00A4EF"/>
<path d="M22.3633 26.1768H34.4545V39.1402H22.3633V26.1768Z" fill="#FFB900"/>
</g>
<defs>
<clipPath id="clip0_1_45265">
<rect width="119.124" height="27.2803" fill="white" transform="translate(9.00684 11.8599)"/>
</clipPath>
</defs>
</svg>
