<svg width="112" height="51" viewBox="0 0 112 51" fill="none" xmlns="http://www.w3.org/2000/svg">
<path d="M40.3592 27.317C40.3592 25.102 39.3485 23.3387 37.3055 23.3387C35.2626 23.3387 34.1874 25.102 34.1874 27.317C34.1874 29.532 35.1981 31.2954 37.3055 31.2954C39.3915 31.2309 40.3592 29.532 40.3592 27.317ZM31.9079 27.317C31.9079 23.9623 34.0153 21.4678 37.284 21.4678C40.5527 21.4678 42.6602 23.9623 42.6602 27.317C42.6602 30.6717 40.5527 33.1018 37.284 33.1018C34.0153 33.1018 31.9079 30.6717 31.9079 27.317ZM44.6171 21.7043H46.9396L50.6814 27.9407C51.0255 28.5643 51.4771 29.532 51.4771 29.532H51.5416C51.5416 29.532 51.4771 28.3923 51.4771 27.5966V21.7043H53.6706V32.8652H51.4556L47.6062 26.6934C47.2622 26.1343 46.8106 25.1666 46.8106 25.1666H46.7461C46.7461 25.1666 46.8106 26.3493 46.8106 27.102V32.8867H44.5956V21.7043H44.6171ZM56.1866 21.7043H64.4014V23.5752H58.4446V26.0698H63.6702V27.9407H58.4446V30.9513H64.4444V32.8867H56.1651V21.7043H56.1866ZM68.9818 26.9729H71.3043C72.4871 26.9729 73.1107 26.2848 73.1107 25.3386C73.1107 24.3279 72.4226 23.7042 71.3474 23.7042H68.9603V26.9729H68.9818ZM66.6593 21.7043H71.5839C72.8957 21.7043 73.8419 22.0914 74.53 22.715C75.1537 23.3387 75.5408 24.2419 75.5408 25.2741C75.5408 27.3815 74.1215 28.7793 71.799 28.7793H69.0679V32.8007H66.7884V21.6828H66.6593V21.7043ZM77.1536 21.7043H79.4116V30.9513H84.6372V32.8867H77.1536V21.7043ZM85.8845 29.2524V21.7043H88.1425V29.2954C88.1425 30.4352 88.7016 31.2739 90.2499 31.2739C91.6692 31.2739 92.3574 30.4137 92.3574 29.2954V21.7043H94.6153V29.2954C94.6153 31.6825 93.1315 33.1018 90.3144 33.1018C87.3683 33.0373 85.8845 31.6825 85.8845 29.2524ZM96.2067 29.4245H98.4217C98.5937 30.7793 99.3249 31.2954 100.916 31.2954C102.056 31.2954 103.067 30.9083 103.067 29.8761C103.067 28.8008 101.991 28.5643 100.293 28.1772C98.3142 27.7256 96.4432 27.2095 96.4432 24.887C96.4432 22.672 98.2496 21.5323 100.701 21.5323C103.196 21.5323 104.83 22.7795 105.002 24.9945H102.852C102.744 23.8548 101.841 23.2957 100.701 23.2957C99.5184 23.2957 98.6582 23.8118 98.6582 24.6074C98.6582 25.5106 99.4539 25.7902 101.088 26.1343C103.411 26.6504 105.282 27.145 105.282 29.5965C105.282 31.8545 103.475 33.1018 100.916 33.1018C97.9701 33.1018 96.2712 31.747 96.2067 29.4245ZM6.85498 17.726V36.7791H25.9081V25.8977H23.8006V34.6931H8.94093V19.8979H17.7363V17.7475H6.85498V17.726ZM23.8006 14.2207V17.726H20.2309V19.8764H23.8006V23.3817H25.9081V19.8764H29.4133V17.726H25.9081V14.2207H23.8006Z" fill="white"/>
<path d="M17.7363 31.8545V22.5645H15.8654C15.8654 23.1881 15.6289 23.7042 15.3063 23.9838C14.9622 24.2633 14.4461 24.3708 13.8225 24.3708H13.5859V25.8977H15.5644V31.8545C15.5859 31.8545 17.7363 31.8545 17.7363 31.8545Z" fill="white"/>
</svg>
