<svg width="153" height="51" viewBox="0 0 153 51" fill="none" xmlns="http://www.w3.org/2000/svg">
<g clip-path="url(#clip0_1_45229)">
<path d="M129.585 20.1092C130.358 20.1092 130.995 19.7071 131.081 19.1877L131.845 10.5539C131.845 9.70056 130.845 9 129.587 9C128.33 9 127.331 9.70056 127.331 10.5541L128.094 19.1877C128.178 19.707 128.815 20.1092 129.587 20.1092H129.585ZM124.915 22.8059C125.303 22.1371 125.273 21.3854 124.864 21.0514L117.762 16.0734C117.024 15.6461 115.916 16.1604 115.288 17.2493C114.658 18.3368 114.769 19.5514 115.506 19.9788L123.37 23.6375C123.862 23.8196 124.532 23.4692 124.917 22.8008L124.915 22.8059ZM134.259 22.8013C134.646 23.4696 135.313 23.8202 135.805 23.638L143.669 19.9793C144.41 19.552 144.516 18.3373 143.891 17.2498C143.26 16.162 142.15 15.6466 141.414 16.0739L134.311 21.0519C133.905 21.3854 133.875 22.1377 134.261 22.8064L134.259 22.8013ZM129.585 30.8941C130.358 30.8941 130.995 31.2927 131.081 31.8126L131.845 40.4452C131.845 41.3011 130.845 42.0002 129.587 42.0002C128.33 42.0002 127.331 41.3011 127.331 40.4452L128.094 31.8126C128.178 31.2927 128.815 30.8941 129.587 30.8941H129.585ZM134.259 28.1967C134.646 27.5265 135.313 27.179 135.805 27.3632L143.669 31.0195C144.41 31.4472 144.516 32.663 143.891 33.7515C143.26 34.8357 142.15 35.3525 141.414 34.9258L134.311 29.9524C133.905 29.6163 133.875 28.8636 134.261 28.1953H134.258M124.915 28.1958C125.303 28.8636 125.273 29.6163 124.864 29.9531L117.762 34.9263C117.024 35.353 115.916 34.8362 115.288 33.7519C114.658 32.6635 114.769 31.4477 115.506 31.0199L123.37 27.3637C123.862 27.1795 124.532 27.527 124.917 28.1973H124.915" fill="#FDBB30"/>
<path d="M84.7864 29.9366C84.7864 30.2016 84.7628 30.4748 84.6902 30.7148C84.3889 31.7116 83.3561 32.5545 82.0639 32.5545C80.9865 32.5545 80.1307 31.9429 80.1307 30.6513C80.1307 28.6746 82.3083 28.1287 84.787 28.1424L84.7864 29.9365V29.9366ZM88.6743 26.4917C88.6743 23.2321 87.2804 20.364 82.5705 20.364C80.1528 20.364 78.2339 21.0425 77.1866 21.6473L77.9537 24.2677C78.9109 23.6639 80.4364 23.1641 81.8801 23.1641C84.2692 23.1574 84.6604 24.5159 84.6604 25.3853V25.5911C79.4527 25.5834 76.1608 27.3851 76.1608 31.0555C76.1608 33.2983 77.8374 35.3989 80.752 35.3989C82.5429 35.3989 84.0429 34.6847 84.9405 33.5394H85.0292C85.0292 33.5394 85.6232 36.0259 88.9023 35.0745C88.7312 34.0405 88.6749 32.9366 88.6749 31.6093L88.6745 26.4917M7.5332 15.9249C7.5332 15.9249 10.9363 29.8582 11.4797 32.1195C12.1136 34.7589 13.2561 35.7306 16.5485 35.0745L18.6733 26.4364C19.2121 24.2898 19.5727 22.7593 19.9198 20.5778H19.9803C20.224 22.7824 20.5698 24.2964 21.0131 26.4435C21.0131 26.4435 21.8777 30.3653 22.3212 32.4245C22.7652 34.483 24.0009 35.7812 27.2263 35.0745L32.2895 15.9243H28.2027L26.4733 24.2043C26.0084 26.6134 25.5869 28.4981 25.2617 30.7016H25.2038C24.9083 28.5175 24.532 26.7097 24.0598 24.3619L22.2608 15.9243H18.0019L16.0765 24.1491C15.5315 26.6492 15.0205 28.667 14.6967 30.7972H14.6378C14.3055 28.7913 13.863 26.2542 13.3842 23.8354C13.3842 23.8354 12.2411 17.9522 11.8391 15.9243L7.5332 15.9249ZM40.02 29.9366C40.02 30.2016 39.9965 30.4748 39.9228 30.7148C39.6222 31.7116 38.5887 32.5545 37.2965 32.5545C36.2189 32.5545 35.3644 31.9429 35.3644 30.6513C35.3644 28.6746 37.5413 28.1287 40.0205 28.1424L40.02 29.9365V29.9366ZM43.9075 26.4917C43.9075 23.2321 42.5136 20.364 37.8046 20.364C35.3863 20.364 33.4659 21.0425 32.4192 21.6473L33.1853 24.2677C34.1424 23.6639 35.6679 23.1641 37.1121 23.1641C39.5028 23.1574 39.8941 24.5159 39.8941 25.3853V25.5911C34.6842 25.5834 31.3938 27.3851 31.3938 31.0555C31.3938 33.2983 33.0696 35.3989 35.982 35.3989C37.7753 35.3989 39.2744 34.6847 40.1731 33.5394H40.2607C40.2607 33.5394 40.8564 36.0259 44.1347 35.0745C43.9633 34.0405 43.9075 32.9366 43.9075 31.6093V26.4917ZM50.3955 31.0095V15.9249H46.503V35.0751H50.3955V31.0095ZM101.317 15.9249V30.0517C101.317 32.0002 101.685 33.3639 102.469 34.1985C103.156 34.9282 104.284 35.4005 105.638 35.4005C106.789 35.4005 107.921 35.181 108.455 34.983L108.405 31.9445C108.007 32.0415 107.551 32.1201 106.926 32.1201C105.6 32.1201 105.157 31.271 105.157 29.5226V24.1174H108.546V20.4529H105.157V15.9249H101.317ZM91.2699 20.6888V35.0751H95.2853V27.7091C95.2853 27.3109 95.3094 26.964 95.3724 26.6467C95.6695 25.1029 96.8503 24.1174 98.5466 24.1174C99.0115 24.1174 99.3444 24.1679 99.7049 24.2191V20.4529C99.4023 20.3926 99.197 20.3644 98.8205 20.3644C97.3221 20.3644 95.6172 21.3306 94.9018 23.403H94.7932V20.6888H91.2699ZM53.1211 20.6888V35.0751H57.0332V26.639C57.0332 26.2431 57.0797 25.8244 57.2169 25.4615C57.5411 24.6122 58.3323 23.6174 59.5947 23.6174C61.1741 23.6174 61.9116 24.9509 61.9116 26.8754V35.0741H65.8206V26.5352C65.8206 26.1575 65.8723 25.7021 65.984 25.3691C66.305 24.4024 67.1572 23.6163 68.331 23.6163C69.9313 23.6163 70.6995 24.9264 70.6995 27.1917V35.0736H74.6112V26.6C74.6112 22.1319 72.3404 20.3631 69.7767 20.3631C68.6424 20.3631 67.7461 20.6469 66.9355 21.1433C66.2549 21.5622 65.6444 22.1559 65.1118 22.9362H65.054C64.4358 21.3859 62.9813 20.3638 61.0859 20.3638C58.6509 20.3638 57.5566 21.5972 56.8927 22.6431H56.8345V20.6884H53.1211" fill="white"/>
<path d="M145.642 34.3756H145.701C145.779 34.3756 145.83 34.3433 145.83 34.2952C145.83 34.2405 145.783 34.2108 145.71 34.2108C145.685 34.2108 145.659 34.2159 145.642 34.2159V34.377V34.3755L145.642 34.3756ZM145.633 34.7635H145.425V34.0865C145.472 34.0772 145.582 34.0608 145.723 34.0608C145.876 34.0608 145.945 34.0823 145.995 34.1162C146.038 34.1458 146.068 34.1963 146.068 34.2645C146.068 34.334 146.004 34.3929 145.91 34.4186V34.4272C145.987 34.4477 146.029 34.5035 146.051 34.6013C146.072 34.6989 146.085 34.7388 146.098 34.7639H145.862C145.842 34.7388 145.83 34.6789 145.816 34.6191C145.803 34.5506 145.77 34.5162 145.701 34.5162H145.633L145.633 34.7635ZM145.719 33.8659C145.42 33.8659 145.195 34.109 145.195 34.4189C145.195 34.7208 145.421 34.9671 145.727 34.9671C146.035 34.9722 146.26 34.721 146.26 34.414C146.26 34.1084 146.035 33.8659 145.724 33.8659H145.719ZM145.732 33.6821C146.149 33.6821 146.481 34.0096 146.481 34.4138C146.481 34.8228 146.149 35.1507 145.727 35.1507C145.305 35.1507 144.969 34.8223 144.969 34.414C144.969 34.0096 145.305 33.6823 145.727 33.6823H145.731" fill="#FDBB30"/>
</g>
<defs>
<clipPath id="clip0_1_45229">
<rect width="139" height="33" fill="white" transform="translate(7.50781 9)"/>
</clipPath>
</defs>
</svg>
